<svg xmlns="http://www.w3.org/2000/svg" width="2500" height="1900" viewBox="250 360 2500 1900" role="img" aria-labelledby="title desc"><title id="title">FlowMova logo avec texte</title><desc id="desc">Logo FlowMova couleur avec icone et texte en dessous.</desc><defs><linearGradient id="flowmovaBlue" x1="650" y1="560" x2="2270" y2="760" gradientUnits="userSpaceOnUse">
  <stop offset="0" stop-color="#168AF4" />
  <stop offset="1" stop-color="#38C3EC" />
</linearGradient><linearGradient id="flowmovaAqua" x1="630" y1="820" x2="2370" y2="1120" gradientUnits="userSpaceOnUse">
  <stop offset="0" stop-color="#05A9A7" />
  <stop offset="1" stop-color="#37CBD7" />
</linearGradient><linearGradient id="flowmovaGreen" x1="680" y1="1120" x2="2290" y2="1460" gradientUnits="userSpaceOnUse">
  <stop offset="0" stop-color="#2FB252" />
  <stop offset="1" stop-color="#8DD93A" />
</linearGradient><radialGradient id="flowmovaOrange" cx="2480" cy="640" r="190" gradientUnits="userSpaceOnUse">
  <stop offset="0" stop-color="#FFB347" />
  <stop offset="1" stop-color="#FF8A1E" />
</radialGradient></defs><g fill-rule="evenodd"><path fill="url(#flowmovaBlue)" d="M1283.327 563.87c3.74.01 7.47 0 11.21-.01 21.75 0 43.36.79 65.03 2.77.92.08 1.84.16 2.8.25 52.98 4.88 106.7 14.28 157.86 29.05 3.76 1.07 7.53 2.02 11.34 2.95 23.87 5.89 47.34 13.28 70.85 20.49 4.82 1.48 9.64 2.95 14.46 4.4 11.36 3.41 22.63 7.01 33.84 10.91 4.1 1.43 8.21 2.84 12.31 4.25.8.28 1.59.55 2.41.83 7.52 2.58 15.08 5.01 22.66 7.38 4.82 1.51 9.63 3.06 14.43 4.63.77.25 1.54.5 2.33.76 1.6.52 3.19 1.04 4.78 1.56 13.59 4.42 27.21 8.77 40.87 12.96 5.76 1.78 11.49 3.6 17.18 5.58 7.77 2.64 15.7 4.68 23.63 6.78 6.14 1.63 12.24 3.31 18.31 5.15 72.09 21.48 147.29 31.29 222.37 30.44 1.17-.01 2.34-.02 3.54-.04 71.3-1.05 142.37-19.91 206.4-50.65 1.01-.48 2.03-.97 3.07-1.47 4.01-1.92 8.02-3.84 11.99-5.84 1.16.17 1.16.17 7 1 2.55 3.82 1.86 4.6 1 9-10.67 29.85-30.59 57.2-50 82-.32.43-.32.43-1.98 2.58-4.41 5.65-9.15 10.92-14.07 16.13-3.85 4.09-3.85 4.09-4.95 6.29h-2v2h-2v2h-2v2h-2v2h-2l-2 4-4 2v2c-5.03 4.44-10.1 8.82-15.18 13.19-.6.51-1.19 1.02-1.8 1.55-9.64 8.26-9.64 8.26-12.02 8.26v2c-21.17 15.18-42.72 28.66-66.15 40.09-1.3.64-2.59 1.29-3.88 1.94-3.89 1.98-7.75 3.76-11.84 5.28-3.64 1.36-7.26 2.73-10.84 4.25-31.02 12.94-66.22 20.56-99.6 23.5l-2.81.25c-18.26 1.54-36.56 1.98-54.88 1.69-.98-.01-1.97-.02-2.99-.04-51.73-.8-105-9.75-154.63-24.28-3.88-1.11-7.8-2.13-11.7-3.16-12.39-3.29-24.65-6.86-36.89-10.66-2.74-.85-5.49-1.68-8.24-2.5-11.46-3.45-22.86-7.05-34.24-10.74-12.35-4.01-24.73-7.91-37.12-11.78-7.93-2.47-15.82-5.03-23.69-7.67-18.07-6.04-36.27-11.65-54.5-17.17-.69-.21-1.39-.42-2.11-.64-18.62-5.65-37.23-11.13-56.11-15.88-4.16-1.05-8.29-2.18-12.41-3.38-10.5-3.06-21.16-5.32-31.85-7.6-5.87-1.25-11.71-2.52-17.52-4.03-7.12-1.81-14.33-3.12-21.56-4.41a2555 2555 0 0 0-17.44-3.06c-1.14-.2-2.29-.4-3.46-.6-15.14-2.56-30.33-4.16-45.6-5.59l-2.75-.25c-6.06-.57-12.12-1.08-18.19-1.56-.7-.06-1.41-.11-2.14-.17-16.08-1.23-32.24-1.07-48.36-1.08h-2.27c-25.19-.02-50.16.66-75.23 3.25-1.45.15-2.91.29-4.36.44-38.11 3.89-76.69 10.48-113.46 21.34-2.74.81-5.48 1.58-8.24 2.33-10.87 2.93-21.54 6.28-32.19 9.95l-2.46.85c-11.36 3.9-22.63 8.01-33.79 12.47l-3.53 1.4c-7.14 2.9-14 6.17-20.86 9.66-3.49 1.75-7 3.27-10.61 4.75-9.66 4.1-18.76 9.24-27.91 14.36q-3.48 1.95-6.99 3.87c-8.71 4.81-17.17 9.97-25.57 15.3-2.07 1.31-4.15 2.6-6.24 3.89-7.42 4.59-14.73 9.24-21.79 14.39-.68.5-1.36.99-2.06 1.5-13.58 9.92-27.04 19.9-39.82 30.85-2.85 2.44-5.76 4.8-8.68 7.15-5.49 4.47-10.69 9.23-15.87 14.04-2.76 2.57-5.54 5.11-8.32 7.65-1.01.93-2.03 1.86-3.04 2.79-2.21 2.02-2.21 2.02-4.21 2.02v2h-2v2c-.45.39-.91.77-1.38 1.17-5.96 5.11-11.52 10.58-17.05 16.14-.46.46-.46.46-2.76 2.75l-2.62 2.62c-.78.78-1.56 1.56-2.36 2.37-1.83 1.95-1.83 1.95-2.83 3.95h-2l-2 4c-5 1-5 1-8-1 .57-6.9 3-12.99 5.44-19.44.44-1.18.89-2.36 1.34-3.58a790 790 0 0 1 9.54-24.04c.39-.96.79-1.91 1.19-2.9 2.23-5.29 4.64-10.44 7.24-15.55 1.26-2.5 2.46-5.02 3.65-7.55 10.27-21.81 21.2-43.26 33.6-63.94.44-.73.87-1.46 1.32-2.21 13.8-23.19 29.1-45.5 45.68-66.79 2.02-2.66 4.01-5.33 6-8h2c.23-.7.45-1.41.68-2.14 1.61-3.48 3.88-5.94 6.51-8.67.99-1.06 1.99-2.12 2.98-3.18.48-.51.97-1.02 1.47-1.55 1.82-1.95 3.6-3.95 5.36-5.96.52-.59 1.03-1.18 1.57-1.78 1.55-1.86 3-3.77 4.43-5.72h2v-2h2c.23-.55.46-1.11.69-1.67 1.7-3.02 3.86-5.1 6.32-7.53l1.47-1.47c1.55-1.53 3.1-3.05 4.65-4.58l3.15-3.12c7.69-7.63 7.69-7.63 9.72-7.63v-2c.24-.21.24-.21 1.44-1.25 5.21-4.55 10.39-9.14 15.56-13.75h2v-2c.85-.67 1.7-1.33 2.57-2.02.56-.44 1.12-.88 1.7-1.33l3.78-2.97c3.15-2.47 6.31-4.96 9.44-7.47 8.55-6.85 17.39-13.14 26.51-19.21.81-.53 1.61-1.07 2.44-1.62 9.24-6.13 18.5-12.12 28.2-17.51 2.28-1.27 4.54-2.57 6.79-3.9 13.02-7.66 26.8-13.81 40.57-19.97 1.02-.46 2.04-.91 3.08-1.38 17.55-7.79 35.64-13.83 53.92-19.62.55-.17.55-.17 3.3-1.05 17.31-5.46 34.94-9.33 52.7-12.95 1.02-.21 2.04-.41 3.09-.63 40.04-8.02 80.49-10.57 121.24-10.5" /><path fill="url(#flowmovaAqua)" d="m2365 824 6 1c2.89 4.33 1.95 7.96 1 13-1.51 4.46-3.3 8.77-5.18 13.1-.77 1.79-1.52 3.6-2.27 5.41-3.43 8.24-7.27 16.21-11.35 24.14-.85 1.66-1.69 3.32-2.54 4.98-9.86 19.39-20.82 37.76-32.85 55.87-.42.63-.84 1.27-1.27 1.92A460 460 0 0 1 2299 968l-4.44 5.94c-4.79 6.4-9.67 12.73-14.56 19.06h-2c-.27.59-.55 1.18-.83 1.79-1.13 2.14-2.33 3.74-3.92 5.56-.53.6-1.05 1.21-1.59 1.83-.55.62-1.1 1.24-1.66 1.88-1.08 1.24-2.17 2.48-3.25 3.73-.24.27-.24.27-1.45 1.65-1.3 1.56-1.3 1.56-3.3 4.56h-2c-.23.55-.45 1.11-.68 1.68-1.71 3.01-3.9 5.05-6.38 7.44-4.84 4.69-4.84 4.69-5.94 6.88h-2v2h-2v2h-2v2h-2v2h-2v2h-2v2c-.48.41-.97.83-1.47 1.25-5.07 4.37-9.85 8.96-14.53 13.75h-2v2l-1.91 1.55c-4.73 3.84-9.41 7.71-14.01 11.71-13.64 11.86-28.19 22.51-43.08 32.74-.79.55-1.59 1.1-2.4 1.66-49.96 34.34-105.96 59.97-164.6 75.34-.44.12-.44.12-2.68.72-17.59 4.74-35.39 8.12-53.32 11.28-1 .18-2 .36-3.03.54-27.86 4.83-55.79 5.87-84 5.89l-6.89.03c-22.17.07-44.03-1.21-66.08-3.46l-3.58-.36c-24.32-2.51-48.57-6.74-72.34-12.46-4.09-.98-8.2-1.8-12.33-2.6-7.25-1.44-14.37-3.2-21.5-5.14-1.26-.34-2.53-.68-3.83-1.04-42.66-11.54-42.66-11.54-61.28-18.01-3.94-1.35-7.93-2.51-11.94-3.66-9.54-2.76-18.93-5.94-28.32-9.17-.88-.3-1.76-.6-2.66-.91-13.93-4.77-27.8-9.7-41.64-14.72-12.83-4.64-25.72-9.07-38.69-13.29-5.67-1.86-11.29-3.76-16.84-5.97-10.09-3.94-20.47-7.08-30.8-10.36-1.11-.35-2.22-.7-3.36-1.07-29.79-9.48-59.58-18.54-89.89-26.24-1.15-.29-2.31-.59-3.5-.89-14.82-3.74-29.73-6.8-44.75-9.59-3.43-.65-6.84-1.36-10.25-2.08-51.52-10.19-107.1-14.13-159.5-9.44-.63.06-.63.06-3.84.34-33.13 3.04-66.55 7.55-98.45 17.26-3.46 1.04-6.93 2.02-10.42 2.96-30.85 8.35-61.62 19.17-90.29 33.44-1.3.64-2.61 1.28-3.91 1.92-9.14 4.5-18.13 9.24-27.09 14.08-.87.47-1.75.93-2.64 1.41-23.15 12.47-45.42 26.22-67.3 40.78-.69.46-1.39.92-2.1 1.4-7.83 5.2-15.57 10.51-23.19 16-4.33 3.1-8.7 6.11-13.15 9.03-.65.44-1.3.87-1.97 1.31-4.41 2.92-4.64 3.07-10.65 3.07-3-3-3-3-3.21-5.97.01-4.68 1.69-8.29 3.65-12.47.18-.39.18-.39 1.09-2.38 3.39-7.27 7.22-14.25 11.29-21.16 1.22-2.08 2.42-4.18 3.62-6.27 5.1-8.84 10.5-17.43 16.26-25.85q2.025-2.955 4.02-5.94c5.42-7.99 11.04-15.76 17.01-23.34 1.31-1.67 2.6-3.34 3.88-5.01 8.95-11.58 18.56-22.54 28.38-33.38 3.04-3.37 6.03-6.8 9.01-10.23h2v-2h2v-2h2v-2c.46-.39.92-.78 1.4-1.18 4.97-4.26 9.59-8.78 14.19-13.44 8.49-8.38 8.49-8.38 11.41-8.38v-2c18.28-15.11 36.89-29.6 57.2-41.9 1.65-1.01 3.28-2.04 4.91-3.07C963.45 958.5 974.2 952.72 985 947c.44-.23.44-.23 2.68-1.42 36.48-19.18 75.53-32.27 115.32-42.58 1.16-.3 2.32-.61 3.51-.92 61.23-15.78 126.03-18.83 188.93-16.2.96.03 1.91.07 2.9.11 18.86.79 37.63 2.32 56.35 4.76 1.29.17 2.57.34 3.9.51 48.04 6.39 95.28 17.29 141.81 30.71 3.37.96 6.75 1.91 10.13 2.83 15.93 4.38 31.71 9.23 47.47 14.2 4.9 1.54 9.8 3.08 14.69 4.63 1.46.45 2.91.91 4.37 1.37 24.21 7.62 48.47 15.07 72.76 22.43 3.59 1.08 7.18 2.19 10.76 3.3 14.38 4.45 28.85 8.49 43.42 12.27.66.17 1.31.34 1.99.52 59.43 15.47 120.39 27.86 182.01 28.48.72.01 1.43.02 2.17.02 11.25.12 22.49.11 33.74 0 1.88-.02 3.76-.03 5.64-.04 48.72-.44 98.5-9.91 144.96-24.22 2.29-.7 4.58-1.35 6.89-1.99 11.56-3.21 22.7-7.44 33.9-11.74 2.22-.85 4.46-1.68 6.7-2.49 20.96-7.6 41.39-16.56 61.44-26.29.36-.17.36-.17 2.17-1.05a450 450 0 0 0 26.95-14.23c2.92-1.67 5.86-3.3 8.82-4.91.86-.47 1.73-.94 2.62-1.43 1.62-.88 3.24-1.76 4.86-2.63 40.53-21.8 79.41-49.28 114.23-79.39.59-.51 1.18-1.02 1.79-1.55.58-.5 1.16-1 1.76-1.52 5.93-5.1 12.11-9.85 18.36-14.54" /><path fill="url(#flowmovaGreen)" d="M2292 1131c2.03 10.13-5.66 21.82-10.02 30.93-1.02 2.15-2.02 4.31-3.01 6.47-5.3 11.49-11.14 22.63-17.33 33.66-1.1 1.97-2.19 3.93-3.27 5.9-7.72 14.01-16.09 27.42-25.06 40.66-.47.71-.94 1.41-1.43 2.13-6.6 9.74-13.5 19.21-20.61 28.58-1.61 2.12-3.2 4.25-4.79 6.38-5.37 7.2-10.79 14.33-16.48 21.29h-2c-.27.57-.53 1.14-.8 1.73-1.26 2.38-2.69 4.39-4.32 6.52-.54.71-1.08 1.41-1.64 2.14-.2.27-.2.27-1.24 1.61h-2c-.25.57-.49 1.15-.75 1.74-1.45 2.62-3.15 4.32-5.31 6.38-3.84 3.69-3.84 3.69-4.94 5.88h-2c-.25.58-.5 1.15-.76 1.74-1.41 2.57-3.02 4.28-5.09 6.34l-2.33 2.33c-.81.79-1.61 1.59-2.44 2.4-.79.78-1.57 1.57-2.38 2.37-4.31 4.29-8.71 8.42-13.34 12.37-1.98 1.73-3.84 3.55-5.66 5.45h-2v2c-7 6-7 6-9 6v2c-.84.65-1.67 1.31-2.54 1.98-1.17.93-2.35 1.85-3.52 2.77-.63.49-1.26.99-1.91 1.49a933 933 0 0 0-9.81 7.81c-20.17 16.34-41.81 30.87-64.22 43.95-1.69 1.04-3.38 2.08-5.06 3.12-5.52 3.31-11.28 6.12-17.06 8.95-1.88.93-3.76 1.88-5.63 2.84-34.28 17.46-70.17 30.63-107.37 40.32-2.49.67-4.96 1.37-7.43 2.11-27.81 8.29-57.24 12.19-86.01 15.35-1.08.12-2.16.24-3.28.36-20.6 2.15-41.22 2.19-61.91 2.2h-2.36c-24.08.01-47.96-.34-71.89-3.25-.73-.09-1.47-.17-2.23-.26-28.16-3.36-56.18-8.16-83.77-14.74-.63-.15-.63-.15-3.79-.89-9-2.17-17.88-4.71-26.76-7.34-5.09-1.51-10.19-2.98-15.32-4.36-17.02-4.56-33.6-10.21-50.23-16.04-3.31-1.17-6.63-2.31-9.95-3.45-9.31-3.21-18.52-6.64-27.69-10.25-3.88-1.53-7.78-2.98-11.7-4.42-10.67-3.96-21.17-8.36-31.7-12.67-4.11-1.68-8.22-3.34-12.33-5.01-1.43-.58-2.87-1.16-4.3-1.74-2.09-.84-4.18-1.68-6.27-2.53-10.26-4.13-20.33-8.58-30.34-13.3-4.28-1.98-8.57-3.78-13-5.44-4.64-1.74-9.1-3.68-13.57-5.81-7.72-3.65-15.55-6.98-23.43-10.25-1.36-.57-2.73-1.14-4.09-1.71-8.26-3.45-16.53-6.87-24.83-10.23-3.01-1.24-5.97-2.6-8.94-3.97-5.65-2.58-11.4-4.86-17.2-7.09-12.34-4.78-12.34-4.78-18.06-7.19-.91-.38-1.82-.76-2.75-1.15-1.93-.81-3.85-1.63-5.78-2.44-12.2-5.03-24.71-9.21-37.21-13.44-3.55-1.21-7.1-2.43-10.65-3.64-15.9-5.42-31.91-10.24-48.11-14.64-1.01-.27-2.01-.55-3.05-.83-33.53-9.05-68.33-14.65-102.95-17.17l-2.25-.18c-16.55-1.25-33.17-1.01-49.75-.82-.54.01-.54.01-3.25.04-41.36.67-82.86 7.96-122.54 19.33-2.14.61-4.28 1.21-6.42 1.81-16.56 4.71-32.73 10.63-48.79 16.82-.63.24-1.25.48-1.9.73-7.76 2.99-15.3 6.27-22.79 9.86-4.98 2.35-9.97 4.09-15.31 5.41l-3-3c2.28-5.07 5.22-9.09 8.69-13.38.51-.64 1.02-1.28 1.55-1.94 1.25-1.56 2.5-3.12 3.76-4.68h2c.29-.6.58-1.2.88-1.81 2.48-4.83 2.48-4.83 5.23-6.38 4.29-2.69 7.62-6.25 11.18-9.84.79-.78 1.58-1.57 2.39-2.38 1.66-1.65 3.31-3.31 4.97-4.98 2.53-2.54 5.08-5.08 7.62-7.61 1.61-1.61 3.22-3.23 4.84-4.84.76-.76 1.52-1.51 2.3-2.29.71-.72 1.41-1.43 2.14-2.16l1.88-1.88c1.59-1.85 2.58-3.61 3.57-5.83h2v-2c2.51-2.06 5.02-4.11 7.53-6.16q3.705-3.03 7.41-6.09c7.17-5.89 14.36-11.56 22.06-16.75 1.18-.82 2.36-1.65 3.53-2.48 13.73-9.62 28.01-18.3 42.64-26.49 1.95-1.1 3.89-2.23 5.82-3.36 12.55-7.26 25.65-13.05 39.01-18.67l2.21-.94c4.22-1.78 8.49-3.46 12.79-5.06.8-.3 1.61-.6 2.44-.91 14.33-5.28 28.83-9.52 43.62-13.32 2.88-.75 5.75-1.55 8.62-2.35 4.88-1.34 9.78-2.42 14.76-3.36.88-.16 1.76-.33 2.66-.5 7.63-1.4 15.29-2.57 22.96-3.68.55-.08.55-.08 3.29-.49 17.88-2.51 35.6-3.77 53.65-4.08l3.11-.06c16.33-.3 32.58-.28 48.89.75.44.02.44.02 2.68.15 36.6 2.16 73.8 8.51 109.35 17.36 1.82.45 3.64.89 5.46 1.33 11.4 2.77 22.64 6.05 33.89 9.41 1.97.59 3.94 1.17 5.92 1.76l14.25 4.26c2.13.63 4.27 1.27 6.4 1.9 15.81 4.7 31.41 9.95 46.99 15.35l4.68 1.62c.76.26 1.51.52 2.28.79 3.8 1.31 7.61 2.54 11.48 3.64 3.58 1.04 6.95 2.36 10.38 3.83 6.58 2.81 13.31 5.02 20.12 7.22 10.51 3.44 20.93 7.08 31.31 10.94 10.79 4.02 21.64 7.81 32.59 11.36 6.53 2.13 12.92 4.49 19.31 6.98 3.4 1.29 6.78 2.32 10.29 3.29 7.57 2.14 15.06 4.54 22.54 6.97 22.24 7.22 44.5 14.13 67.11 20.06 2.77.73 5.54 1.47 8.3 2.22 8.29 2.24 16.53 4.25 24.98 5.79 2.88.6 5.63 1.31 8.45 2.12 8.27 2.29 16.69 3.85 25.12 5.46.9.18 1.8.35 2.73.53 29.12 5.53 58.78 9.89 88.39 11.66 1.27.08 2.55.17 3.86.26 14.27.89 28.53.94 42.83.93h3.82c19.25-.02 38.31-.42 57.49-2.19 1.22-.11 2.44-.21 3.69-.32 24.27-2.17 48.09-5.73 71.84-11.13 3.43-.76 6.88-1.4 10.35-2.05 6.02-1.18 11.84-2.78 17.7-4.61 4.09-1.27 8.18-2.29 12.37-3.2 8.26-1.87 16.22-4.54 24.24-7.25.78-.27 1.56-.53 2.37-.8A781 781 0 0 0 2066 1278c.83-.33 1.66-.66 2.52-1 8.38-3.31 16.5-6.89 24.53-11.01 3.92-2 7.91-3.87 11.91-5.74 23.12-10.88 45.67-23.21 67.04-37.25.73-.48 1.46-.96 2.22-1.45 12.5-8.2 24.75-16.68 36.78-25.55 1.06-.78 2.13-1.55 3.22-2.36 7.19-5.3 14.11-10.91 21.02-16.57 3-2.45 6.03-4.86 9.07-7.26 4.58-3.64 8.89-7.57 13.19-11.53 7.98-7.28 7.98-7.28 10.5-7.28v-2c.54-.47 1.09-.94 1.64-1.43.72-.62 1.44-1.24 2.17-1.88.71-.62 1.42-1.23 2.15-1.87 1.74-1.55 3.41-3.15 5.04-4.82h2v-2h2v-2c5-4 5-4 9-4" /><path fill="#05A9A7" d="M579.824 1017.484c2.45 1.17 4.9 2.27 7.38 3.34 17.67 7.79 33.09 18.6 46.8 32.18 1.08 1.02 2.17 2.05 3.26 3.07 7.67 7.32 13.93 15.06 19.74 23.93l1.26 1.9c24.29 36.55 33.96 80.67 26.55 124.1-.57 2.68-1.16 5.33-1.81 8-.2.79-.39 1.58-.59 2.4-7.1 28.6-21.11 55.16-41.41 76.6-1.36 1.55-2.72 3.12-4.07 4.68-7.33 8.23-16.12 14.78-24.93 21.32-.92.68-1.83 1.36-2.77 2.06-23.77 16.81-55.13 27.21-84.23 27.94l-2.42.06c-39.73.88-78.99-8.99-110.58-34.06-.89-.7-1.78-1.4-2.69-2.11-2.81-2.26-5.57-4.56-8.31-6.89-.95-.8-1.9-1.6-2.87-2.42-19.9-17.45-33.64-39.51-44.13-63.58-.35-.8-.71-1.61-1.07-2.43-2.69-6.42-4.48-12.92-6.06-19.7-.26-1.11-.52-2.21-.78-3.36-7.07-30.98-6.06-63.52 4.91-93.51.37-1.09.75-2.18 1.14-3.3 6.77-18.62 17.04-34.92 28.86-50.7h2c.26-.59.53-1.17.8-1.77 3.73-6.98 10.22-12.22 16.2-17.23.42-.38.42-.38 2.57-2.28 46.13-39.95 120.93-55.3 177.25-28.24" /><path fill="url(#flowmovaOrange)" d="M2478.483 472.74c2.32.01 4.63 0 6.95-.01 13.66-.02 26.99 1.02 40.13 5.02l2.69.8c19.77 6.01 37.3 15.01 53.75 27.45.87.65 1.74 1.3 2.64 1.97 1.79 1.33 3.58 2.68 5.36 4.03v2c.54.22 1.09.44 1.65.67 24.11 13.66 40.77 50.17 48.03 75.52l1.32 4.81c.1.36.1.36.64 2.16 3.59 12.35 3.75 24.77 3.79 37.53.01.41.01.41.02 2.5.06 11.59-1.07 22.47-3.45 33.81-.21 1.05-.43 2.1-.65 3.18-5.19 24.54-18.02 46.35-33.35 65.82l-2 3h-2c-.23.55-.46 1.1-.69 1.67-6.65 11.8-21.3 21.06-32.31 28.33-.54.36-.54.36-3.26 2.16-30.28 19.38-67.32 26.12-102.74 22.84-.8-.07-1.6-.13-2.42-.2-38.39-3.55-74.21-23.2-100.58-50.8v-2h-2c-31.49-36.1-43.88-78.22-41.75-125.56 2.47-31.56 16.26-61.33 35.72-85.87 2.03-2.57 2.03-2.57 4.03-5.57h2c.23-.56.47-1.12.72-1.7 7-12.56 22.55-21.49 34.28-29.3.4-.27.4-.27 2.42-1.62 23.99-15.24 52.84-22.79 81.06-22.64" /><path fill="url(#flowmovaGreen)" d="M807 1286v3l-38 38v-3l1.94-1.91c4.6-4.55 9.05-9.14 13.26-14.06 3.42-3.85 7.12-7.43 10.8-11.03h2v-2h2v-2h2v-2z" /></g><text x="1500" y="1920" text-anchor="middle" font-family="Nunito Sans, Inter, Segoe UI, Arial, sans-serif" font-size="340" font-weight="750" letter-spacing="-3" fill="#13233E">FlowMova</text></svg>